<svg data-v-fde0c5aa="" xmlns="http://www.w3.org/2000/svg" viewBox="0 0 300 300" class="iconLeft"><!----><defs data-v-fde0c5aa=""><linearGradient data-v-fde0c5aa="" gradientTransform="rotate(25)" id="3cc31e5c-fbc5-4024-bbdd-d16f11e4c6ef" x1="0%" y1="0%" x2="100%" y2="0%"><stop data-v-fde0c5aa="" offset="0%" stop-color="#4F7E48" stop-opacity="1"></stop><stop data-v-fde0c5aa="" offset="100%" stop-color="#CAE6A5" stop-opacity="1"></stop></linearGradient></defs><rect data-v-fde0c5aa="" fill="url(#3cc31e5c-fbc5-4024-bbdd-d16f11e4c6ef)" x="0" y="0" width="300px" height="300px" class="logo-background-square"></rect><defs data-v-fde0c5aa=""><!----></defs><g data-v-fde0c5aa="" id="1134652e-db53-4dea-a4e5-03a6ea8f0142" fill="#ffffff" transform="matrix(3.8796501856086225,0,0,3.8796501856086225,112.84486403845729,114.69518368095382)"><path d="M4.87 4.76C4.87 5.07 4.62 5.32 4.31 5.32L3.14 5.32L3.14 6.65C2.98 6.51 2.79 6.43 2.58 6.43C2.35 6.43 2.16 6.51 2.02 6.65L2.02 5.32L0.77 5.32C0.46 5.32 0.21 5.07 0.21 4.76C0.21 4.45 0.46 4.20 0.77 4.20L4.31 4.20C4.62 4.20 4.87 4.45 4.87 4.76ZM3.14 7.22L3.14 13.44C3.14 13.75 2.88 14 2.58 14C2.27 14 2.02 13.75 2.02 13.44L2.02 7.22L2.02 7.17C2.04 6.89 2.28 6.66 2.58 6.66C2.87 6.66 3.11 6.87 3.14 7.17ZM8.65 8.96C8.65 9.03 8.64 9.09 8.62 9.14C8.55 9.37 8.33 9.52 8.09 9.52C7.78 9.52 7.53 9.27 7.53 8.96C7.53 8.93 7.53 8.90 7.52 8.88C7.50 8.58 7.39 8.32 7.20 8.11C6.99 7.90 6.72 7.77 6.44 7.77C6.16 7.77 5.89 7.90 5.70 8.11C5.50 8.32 5.39 8.58 5.36 8.88L5.36 8.96C5.36 9.27 5.11 9.52 4.80 9.52C4.55 9.52 4.34 9.37 4.27 9.14C4.26 9.09 4.24 9.03 4.24 8.96L4.24 8.88C4.24 8.78 4.26 8.69 4.27 8.60C4.44 7.50 5.35 6.65 6.44 6.65C7.55 6.65 8.46 7.50 8.62 8.60C8.64 8.69 8.64 8.78 8.65 8.88ZM8.65 11.91C8.65 12.53 8.41 13.08 7.98 13.45C7.57 13.80 7.03 14 6.44 14C5.24 14 4.24 12.96 4.24 11.69L4.24 9.53C4.30 9.58 4.35 9.63 4.41 9.66C4.52 9.73 4.66 9.76 4.80 9.76C5.03 9.76 5.22 9.67 5.36 9.53C5.42 9.48 5.46 9.42 5.50 9.35C5.54 9.45 5.61 9.55 5.70 9.63C5.89 9.84 6.16 9.97 6.44 9.97C6.72 9.97 6.99 9.84 7.20 9.63C7.28 9.55 7.34 9.45 7.39 9.35C7.53 9.60 7.78 9.76 8.09 9.76C8.23 9.76 8.36 9.73 8.48 9.66C8.15 10.50 7.36 11.09 6.44 11.09C6.05 11.09 5.68 10.98 5.36 10.79L5.36 11.69C5.36 12.01 5.47 12.32 5.70 12.54C5.89 12.75 6.16 12.88 6.44 12.88C6.76 12.88 7.04 12.78 7.24 12.61C7.43 12.45 7.53 12.21 7.53 11.91C7.53 11.61 7.78 11.35 8.09 11.35C8.40 11.35 8.65 11.61 8.65 11.91ZM11.70 6.65C11.10 6.65 10.57 6.85 10.16 7.20C9.73 7.57 9.49 8.12 9.49 8.74C9.49 9.04 9.74 9.30 10.05 9.30C10.36 9.30 10.61 9.04 10.61 8.74C10.61 8.44 10.71 8.20 10.91 8.04C11.10 7.87 11.38 7.77 11.70 7.77C11.98 7.77 12.25 7.90 12.45 8.11C12.66 8.34 12.78 8.64 12.78 8.96L12.78 9.87C12.46 9.67 12.10 9.56 11.70 9.56C10.78 9.56 10.00 10.15 9.66 10.99C9.79 10.92 9.91 10.89 10.05 10.89C10.36 10.89 10.61 11.05 10.75 11.30C10.81 11.20 10.86 11.10 10.95 11.02C11.14 10.81 11.42 10.68 11.70 10.68C11.98 10.68 12.25 10.81 12.45 11.02C12.53 11.10 12.59 11.20 12.64 11.30C12.68 11.23 12.73 11.17 12.78 11.12C12.92 10.98 13.12 10.89 13.34 10.89C13.48 10.89 13.62 10.92 13.73 10.99C13.79 11.02 13.85 11.06 13.90 11.12L13.90 8.96C13.90 7.69 12.91 6.65 11.70 6.65ZM13.34 11.13C13.03 11.13 12.78 11.38 12.78 11.69C12.78 12.01 12.66 12.32 12.45 12.54C12.24 12.77 11.97 12.88 11.69 12.88C11.41 12.88 11.14 12.77 10.95 12.54C10.72 12.32 10.61 12.01 10.61 11.69C10.61 11.38 10.36 11.13 10.05 11.13C9.74 11.13 9.49 11.38 9.49 11.69C9.49 12.96 10.49 14 11.69 14C12.91 14 13.90 12.96 13.90 11.69C13.90 11.38 13.65 11.13 13.34 11.13ZM22.79 6.52C22.79 6.83 22.54 7.08 22.23 7.08C21.92 7.08 21.67 6.83 21.67 6.52C21.67 6.20 21.55 5.89 21.34 5.67C21.14 5.45 20.87 5.33 20.59 5.33C20.30 5.33 20.03 5.45 19.84 5.67C19.63 5.89 19.50 6.20 19.50 6.52L19.50 11.12C19.36 10.98 19.17 10.89 18.94 10.89C18.73 10.89 18.52 10.98 18.38 11.12L18.38 6.52C18.38 5.25 19.38 4.21 20.59 4.21C21.80 4.21 22.79 5.25 22.79 6.52ZM20.58 14C19.38 14 18.38 12.96 18.38 11.69C18.38 11.38 18.63 11.13 18.94 11.13C19.25 11.13 19.50 11.38 19.50 11.69C19.50 12.01 19.61 12.32 19.84 12.54C20.03 12.77 20.30 12.88 20.58 12.88C20.86 12.88 21.13 12.77 21.34 12.54C21.55 12.32 21.67 12.01 21.67 11.69C21.67 11.38 21.92 11.13 22.23 11.13C22.54 11.13 22.79 11.38 22.79 11.69C22.79 12.96 21.80 14 20.58 14ZM24.75 11.12C24.61 10.98 24.42 10.89 24.19 10.89C23.98 10.89 23.77 10.98 23.63 11.12L23.63 4.79C23.63 4.48 23.88 4.23 24.19 4.23C24.50 4.23 24.75 4.48 24.75 4.79ZM24.19 11.13C24.50 11.13 24.75 11.38 24.75 11.69C24.75 12.01 24.88 12.32 25.09 12.54C25.28 12.77 25.55 12.88 25.83 12.88C26.14 12.88 26.43 12.74 26.64 12.47C26.84 12.24 27.19 12.21 27.43 12.40C27.68 12.60 27.71 12.95 27.51 13.19C27.09 13.71 26.49 14 25.83 14C24.63 14 23.63 12.96 23.63 11.69C23.63 11.38 23.88 11.13 24.19 11.13ZM29.39 11.12C29.25 10.98 29.05 10.89 28.83 10.89C28.60 10.89 28.41 10.98 28.27 11.12L28.27 7.21C28.27 6.90 28.52 6.65 28.83 6.65C29.13 6.65 29.39 6.90 29.39 7.21ZM32.68 11.12C32.52 10.98 32.33 10.89 32.12 10.89C31.89 10.89 31.70 10.98 31.56 11.12L31.56 7.21C31.56 6.90 31.81 6.65 32.12 6.65C32.42 6.65 32.68 6.90 32.68 7.21ZM30.46 14C29.26 14 28.27 12.96 28.27 11.69C28.27 11.38 28.52 11.13 28.83 11.13C29.13 11.13 29.39 11.38 29.39 11.69C29.39 12.01 29.50 12.32 29.72 12.54C29.92 12.77 30.18 12.88 30.46 12.88C30.74 12.88 31.01 12.77 31.22 12.54C31.43 12.32 31.56 12.01 31.56 11.69C31.56 11.38 31.81 11.13 32.12 11.13C32.42 11.13 32.68 11.38 32.68 11.69C32.68 12.96 31.68 14 30.46 14ZM34.64 6.72C34.15 6.97 33.75 7.39 33.52 7.91L33.52 4.79C33.52 4.48 33.77 4.23 34.08 4.23C34.38 4.23 34.64 4.48 34.64 4.79ZM33.52 9.00C33.52 8.76 33.56 8.53 33.61 8.32C33.89 7.38 34.73 6.71 35.70 6.69L35.71 6.69C36.93 6.69 37.93 7.73 37.93 9.00C37.93 9.10 37.90 9.18 37.87 9.25C37.77 9.44 37.58 9.56 37.37 9.56C37.14 9.56 36.95 9.44 36.86 9.25C36.82 9.18 36.81 9.10 36.81 9.00C36.81 8.68 36.68 8.39 36.47 8.15C36.26 7.94 35.99 7.81 35.71 7.81C35.43 7.81 35.17 7.94 34.97 8.15C34.75 8.39 34.64 8.68 34.64 9.00C34.64 9.10 34.62 9.18 34.58 9.25C34.48 9.44 34.30 9.56 34.08 9.56C33.85 9.56 33.67 9.44 33.57 9.25C33.54 9.18 33.52 9.10 33.52 9.00ZM37.93 11.69C37.93 12.96 36.93 14 35.71 14C34.51 14 33.52 12.96 33.52 11.69L33.52 9.58C33.66 9.72 33.85 9.81 34.08 9.81C34.30 9.81 34.50 9.72 34.64 9.58L34.64 11.69C34.64 12.01 34.75 12.32 34.97 12.54C35.17 12.75 35.43 12.88 35.71 12.88C35.99 12.88 36.26 12.75 36.47 12.54C36.68 12.32 36.81 12.01 36.81 11.69L36.81 9.58C36.95 9.72 37.14 9.81 37.37 9.81C37.58 9.81 37.77 9.72 37.93 9.58Z"></path></g><defs data-v-fde0c5aa=""><!----></defs><g data-v-fde0c5aa="" id="41693dc3-44db-4894-98de-82305a1f350b" stroke="none" fill="#ffffff" transform="matrix(0.6076714930406825,0,0,0.6076714930406825,40.24489160995683,120.3776738820186)"><path d="M47.562 58.419c-17.987 0-32.077-6.944-32.077-15.808 0-8.862 14.089-15.804 32.077-15.804 17.986 0 32.075 6.942 32.075 15.804 0 8.864-14.089 15.808-32.075 15.808zm0-27.283c-16.353 0-27.749 6.048-27.749 11.476 0 5.429 11.396 11.479 27.749 11.479 16.352 0 27.747-6.05 27.747-11.479 0-5.428-11.395-11.476-27.747-11.476z"></path><path d="M87.574 61.88c3.863-2.926 6.372-7.529 6.372-12.715 0-8.822-7.229-16-16.115-16-1.288 0-2.532.171-3.732.459-5.726-4.144-15.379-6.817-26.537-6.817-3.701 0-7.232.298-10.515.842.169-.545.333-1.087.536-1.646 3.503-9.633 5.257-15.855.087-21.026-3.218-3.22-6.163-3.409-8.064-2.995-3.243.701-5.698 3.629-6.608 6.053-.95 2.534-.124 5.706 1.921 7.378 1.56 1.275 3.535 1.386 5.287.292a1.443 1.443 0 0 0-1.529-2.447c-.71.442-1.323.418-1.931-.079-.959-.784-1.608-2.632-1.045-4.13.663-1.769 2.428-3.795 4.516-4.247 1.746-.377 3.568.368 5.414 2.214 3.843 3.843 2.72 8.436-.758 18a37.562 37.562 0 0 0-1.025 3.258c-10.94 2.49-18.36 7.907-18.36 14.336 0 .041.005.081.006.122l-.075-.088c-.152 1.093-.094 2.105-.055 2.774.011.189.022.354.022.485 0 4.81 1.022 9.376 2.844 13.497C7.298 62.678-.403 67.856-.403 74.786c0 6.316 6.394 11.183 15.804 14.476 8.032 3.935 20.346 6.411 34.39 6.411 14.897 0 27.843-2.788 35.799-7.146 8.316-3.266 13.83-7.877 13.83-13.741 0-5.383-4.652-9.706-11.846-12.906zM47.477 74.432c-13.636 0-24.996-10.156-27.317-23.492 5.585 4.52 15.662 7.479 27.403 7.479 6.25 0 12.027-.84 16.908-2.306 2.876-.614 5.373-1.496 6.81-2.758a23.909 23.909 0 0 0 3.486-2.258 28.775 28.775 0 0 1-6.669 13.87l-.199.066c.042.008.08.017.122.023-5.081 5.755-12.406 9.376-20.544 9.376zm17.284.321c0 3.313-6.732 7.005-16.394 7.005-9.659 0-16.39-3.691-16.39-7.005 0-.028.01-.057.011-.084a31.31 31.31 0 0 0 15.488 4.091c6.267 0 12.112-1.857 17.057-5.051.145.349.228.698.228 1.044zM77.457 57.61c.125.006.248.02.374.02 4.693 0 8.514-3.799 8.514-8.465 0-4.118-2.976-7.554-6.899-8.307-.25-1.166-.752-2.288-1.471-3.357 6.434.077 11.644 5.277 11.644 11.664 0 6.436-5.287 11.672-11.787 11.672-.583 0-1.151-.058-1.711-.144.494-1 .941-2.028 1.336-3.083zm1.308-4.421c.521-2.345.805-4.781.805-7.285 0-.165.013-.319.02-.479 1.429.658 2.427 2.081 2.427 3.739-.001 1.963-1.395 3.604-3.252 4.025zM36 32.233c3.451-.692 7.339-1.098 11.562-1.098 16.352 0 27.747 6.048 27.747 11.476 0 1.733-1.165 3.528-3.278 5.171-2.334-6.419-11.992-11.101-23.895-11.101-4.414 0-8.509.652-12.046 1.79-.38-1.889-.405-3.98-.09-6.238zM34.256 42.3c.194.451.398.872.608 1.254 2.24 4.085 5.847 6.16 8.257 6.697a1.444 1.444 0 0 0 .625-2.818c-1.466-.326-4.454-1.802-6.354-5.268-.159-.291-.281-.606-.417-.912 3.279-1.063 7.105-1.688 11.158-1.688 10.785 0 20.018 4.387 21.375 9.853-4.906 2.7-12.618 4.672-21.949 4.672-8.696 0-15.989-1.711-20.914-4.129.459-3.027 3.35-5.756 7.611-7.661zm-1.261-9.364c-.247 2.565-.063 4.744.353 6.563-4.879 2.117-8.299 5.271-9.326 8.953-2.698-1.816-4.208-3.869-4.208-5.841-.001-3.602 5.023-7.476 13.181-9.675zm-29.07 41.85c0-4.101 6.118-8.464 16.363-11.456.29.472.589.937.901 1.392-9.562 3.188-15.556 7.981-15.556 13.436 0 .167.02.333.031.499-1.133-1.283-1.739-2.59-1.739-3.871zm85.885 6.775c-7.371 4.662-21.929 8.404-40.299 8.404-17.524 0-31.578-3.405-39.236-7.765-1.148-1.328-1.756-2.694-1.756-4.042 0-4.012 5.36-8.178 14.496-11.035a32.664 32.664 0 0 0 6.368 5.9 5.383 5.383 0 0 0-.292 1.729c0 5.546 8.467 9.89 19.276 9.89 10.811 0 19.278-4.344 19.278-9.89 0-.955-.263-1.871-.737-2.738a32.889 32.889 0 0 0 5.855-5.95c11.439 2.813 18.294 7.554 18.294 12.094.001 1.133-.43 2.278-1.247 3.403zm4.118-3.623c-.153-5.161-5.673-9.715-14.489-12.854 1.007-.1 1.982-.299 2.926-.574 8.036 2.896 12.728 6.688 12.728 10.276-.001 1.043-.407 2.103-1.165 3.152z"></path></g><!----></svg>