<svg data-v-fde0c5aa="" xmlns="http://www.w3.org/2000/svg" viewBox="0 0 300 300" class="font"><!----><defs data-v-fde0c5aa=""><linearGradient data-v-fde0c5aa="" gradientTransform="rotate(25)" id="c9cc8ecd-e380-44a4-a60e-d9862b505705" x1="0%" y1="0%" x2="100%" y2="0%"><stop data-v-fde0c5aa="" offset="0%" stop-color="#4F7E48" stop-opacity="1"></stop><stop data-v-fde0c5aa="" offset="100%" stop-color="#CAE6A5" stop-opacity="1"></stop></linearGradient></defs><rect data-v-fde0c5aa="" fill="url(#c9cc8ecd-e380-44a4-a60e-d9862b505705)" x="0" y="0" width="300px" height="300px" class="logo-background-square"></rect><defs data-v-fde0c5aa=""><!----></defs><g data-v-fde0c5aa="" id="0983b841-cbb0-4f1a-8a13-9ff95c7dfc01" fill="#ffffff" transform="matrix(5.8324494400930735,0,0,5.8324494400930735,38.77518609037232,96.92471065137876)"><path d="M4.87 4.76C4.87 5.07 4.62 5.32 4.31 5.32L3.14 5.32L3.14 6.65C2.98 6.51 2.79 6.43 2.58 6.43C2.35 6.43 2.16 6.51 2.02 6.65L2.02 5.32L0.77 5.32C0.46 5.32 0.21 5.07 0.21 4.76C0.21 4.45 0.46 4.20 0.77 4.20L4.31 4.20C4.62 4.20 4.87 4.45 4.87 4.76ZM3.14 7.22L3.14 13.44C3.14 13.75 2.88 14 2.58 14C2.27 14 2.02 13.75 2.02 13.44L2.02 7.22L2.02 7.17C2.04 6.89 2.28 6.66 2.58 6.66C2.87 6.66 3.11 6.87 3.14 7.17ZM8.65 8.96C8.65 9.03 8.64 9.09 8.62 9.14C8.55 9.37 8.33 9.52 8.09 9.52C7.78 9.52 7.53 9.27 7.53 8.96C7.53 8.93 7.53 8.90 7.52 8.88C7.50 8.58 7.39 8.32 7.20 8.11C6.99 7.90 6.72 7.77 6.44 7.77C6.16 7.77 5.89 7.90 5.70 8.11C5.50 8.32 5.39 8.58 5.36 8.88L5.36 8.96C5.36 9.27 5.11 9.52 4.80 9.52C4.55 9.52 4.34 9.37 4.27 9.14C4.26 9.09 4.24 9.03 4.24 8.96L4.24 8.88C4.24 8.78 4.26 8.69 4.27 8.60C4.44 7.50 5.35 6.65 6.44 6.65C7.55 6.65 8.46 7.50 8.62 8.60C8.64 8.69 8.64 8.78 8.65 8.88ZM8.65 11.91C8.65 12.53 8.41 13.08 7.98 13.45C7.57 13.80 7.03 14 6.44 14C5.24 14 4.24 12.96 4.24 11.69L4.24 9.53C4.30 9.58 4.35 9.63 4.41 9.66C4.52 9.73 4.66 9.76 4.80 9.76C5.03 9.76 5.22 9.67 5.36 9.53C5.42 9.48 5.46 9.42 5.50 9.35C5.54 9.45 5.61 9.55 5.70 9.63C5.89 9.84 6.16 9.97 6.44 9.97C6.72 9.97 6.99 9.84 7.20 9.63C7.28 9.55 7.34 9.45 7.39 9.35C7.53 9.60 7.78 9.76 8.09 9.76C8.23 9.76 8.36 9.73 8.48 9.66C8.15 10.50 7.36 11.09 6.44 11.09C6.05 11.09 5.68 10.98 5.36 10.79L5.36 11.69C5.36 12.01 5.47 12.32 5.70 12.54C5.89 12.75 6.16 12.88 6.44 12.88C6.76 12.88 7.04 12.78 7.24 12.61C7.43 12.45 7.53 12.21 7.53 11.91C7.53 11.61 7.78 11.35 8.09 11.35C8.40 11.35 8.65 11.61 8.65 11.91ZM11.70 6.65C11.10 6.65 10.57 6.85 10.16 7.20C9.73 7.57 9.49 8.12 9.49 8.74C9.49 9.04 9.74 9.30 10.05 9.30C10.36 9.30 10.61 9.04 10.61 8.74C10.61 8.44 10.71 8.20 10.91 8.04C11.10 7.87 11.38 7.77 11.70 7.77C11.98 7.77 12.25 7.90 12.45 8.11C12.66 8.34 12.78 8.64 12.78 8.96L12.78 9.87C12.46 9.67 12.10 9.56 11.70 9.56C10.78 9.56 10.00 10.15 9.66 10.99C9.79 10.92 9.91 10.89 10.05 10.89C10.36 10.89 10.61 11.05 10.75 11.30C10.81 11.20 10.86 11.10 10.95 11.02C11.14 10.81 11.42 10.68 11.70 10.68C11.98 10.68 12.25 10.81 12.45 11.02C12.53 11.10 12.59 11.20 12.64 11.30C12.68 11.23 12.73 11.17 12.78 11.12C12.92 10.98 13.12 10.89 13.34 10.89C13.48 10.89 13.62 10.92 13.73 10.99C13.79 11.02 13.85 11.06 13.90 11.12L13.90 8.96C13.90 7.69 12.91 6.65 11.70 6.65ZM13.34 11.13C13.03 11.13 12.78 11.38 12.78 11.69C12.78 12.01 12.66 12.32 12.45 12.54C12.24 12.77 11.97 12.88 11.69 12.88C11.41 12.88 11.14 12.77 10.95 12.54C10.72 12.32 10.61 12.01 10.61 11.69C10.61 11.38 10.36 11.13 10.05 11.13C9.74 11.13 9.49 11.38 9.49 11.69C9.49 12.96 10.49 14 11.69 14C12.91 14 13.90 12.96 13.90 11.69C13.90 11.38 13.65 11.13 13.34 11.13ZM22.79 6.52C22.79 6.83 22.54 7.08 22.23 7.08C21.92 7.08 21.67 6.83 21.67 6.52C21.67 6.20 21.55 5.89 21.34 5.67C21.14 5.45 20.87 5.33 20.59 5.33C20.30 5.33 20.03 5.45 19.84 5.67C19.63 5.89 19.50 6.20 19.50 6.52L19.50 11.12C19.36 10.98 19.17 10.89 18.94 10.89C18.73 10.89 18.52 10.98 18.38 11.12L18.38 6.52C18.38 5.25 19.38 4.21 20.59 4.21C21.80 4.21 22.79 5.25 22.79 6.52ZM20.58 14C19.38 14 18.38 12.96 18.38 11.69C18.38 11.38 18.63 11.13 18.94 11.13C19.25 11.13 19.50 11.38 19.50 11.69C19.50 12.01 19.61 12.32 19.84 12.54C20.03 12.77 20.30 12.88 20.58 12.88C20.86 12.88 21.13 12.77 21.34 12.54C21.55 12.32 21.67 12.01 21.67 11.69C21.67 11.38 21.92 11.13 22.23 11.13C22.54 11.13 22.79 11.38 22.79 11.69C22.79 12.96 21.80 14 20.58 14ZM24.75 11.12C24.61 10.98 24.42 10.89 24.19 10.89C23.98 10.89 23.77 10.98 23.63 11.12L23.63 4.79C23.63 4.48 23.88 4.23 24.19 4.23C24.50 4.23 24.75 4.48 24.75 4.79ZM24.19 11.13C24.50 11.13 24.75 11.38 24.75 11.69C24.75 12.01 24.88 12.32 25.09 12.54C25.28 12.77 25.55 12.88 25.83 12.88C26.14 12.88 26.43 12.74 26.64 12.47C26.84 12.24 27.19 12.21 27.43 12.40C27.68 12.60 27.71 12.95 27.51 13.19C27.09 13.71 26.49 14 25.83 14C24.63 14 23.63 12.96 23.63 11.69C23.63 11.38 23.88 11.13 24.19 11.13ZM29.39 11.12C29.25 10.98 29.05 10.89 28.83 10.89C28.60 10.89 28.41 10.98 28.27 11.12L28.27 7.21C28.27 6.90 28.52 6.65 28.83 6.65C29.13 6.65 29.39 6.90 29.39 7.21ZM32.68 11.12C32.52 10.98 32.33 10.89 32.12 10.89C31.89 10.89 31.70 10.98 31.56 11.12L31.56 7.21C31.56 6.90 31.81 6.65 32.12 6.65C32.42 6.65 32.68 6.90 32.68 7.21ZM30.46 14C29.26 14 28.27 12.96 28.27 11.69C28.27 11.38 28.52 11.13 28.83 11.13C29.13 11.13 29.39 11.38 29.39 11.69C29.39 12.01 29.50 12.32 29.72 12.54C29.92 12.77 30.18 12.88 30.46 12.88C30.74 12.88 31.01 12.77 31.22 12.54C31.43 12.32 31.56 12.01 31.56 11.69C31.56 11.38 31.81 11.13 32.12 11.13C32.42 11.13 32.68 11.38 32.68 11.69C32.68 12.96 31.68 14 30.46 14ZM34.64 6.72C34.15 6.97 33.75 7.39 33.52 7.91L33.52 4.79C33.52 4.48 33.77 4.23 34.08 4.23C34.38 4.23 34.64 4.48 34.64 4.79ZM33.52 9.00C33.52 8.76 33.56 8.53 33.61 8.32C33.89 7.38 34.73 6.71 35.70 6.69L35.71 6.69C36.93 6.69 37.93 7.73 37.93 9.00C37.93 9.10 37.90 9.18 37.87 9.25C37.77 9.44 37.58 9.56 37.37 9.56C37.14 9.56 36.95 9.44 36.86 9.25C36.82 9.18 36.81 9.10 36.81 9.00C36.81 8.68 36.68 8.39 36.47 8.15C36.26 7.94 35.99 7.81 35.71 7.81C35.43 7.81 35.17 7.94 34.97 8.15C34.75 8.39 34.64 8.68 34.64 9.00C34.64 9.10 34.62 9.18 34.58 9.25C34.48 9.44 34.30 9.56 34.08 9.56C33.85 9.56 33.67 9.44 33.57 9.25C33.54 9.18 33.52 9.10 33.52 9.00ZM37.93 11.69C37.93 12.96 36.93 14 35.71 14C34.51 14 33.52 12.96 33.52 11.69L33.52 9.58C33.66 9.72 33.85 9.81 34.08 9.81C34.30 9.81 34.50 9.72 34.64 9.58L34.64 11.69C34.64 12.01 34.75 12.32 34.97 12.54C35.17 12.75 35.43 12.88 35.71 12.88C35.99 12.88 36.26 12.75 36.47 12.54C36.68 12.32 36.81 12.01 36.81 11.69L36.81 9.58C36.95 9.72 37.14 9.81 37.37 9.81C37.58 9.81 37.77 9.72 37.93 9.58Z"></path></g><!----><!----></svg>